<mxfile host="app.diagrams.net" modified="2023-05-03T12:21:05.762Z" agent="Mozilla/5.0 (Windows NT 10.0; Win64; x64) AppleWebKit/537.36 (KHTML, like Gecko) Chrome/112.0.0.0 Safari/537.36" etag="MKyZJVgtpD-0b5jtkLNE" version="21.2.3" type="onedrive">
  <diagram name="Page-1" id="W7bkffRlHmYSXkuGLOqx">
    <mxGraphModel grid="1" page="1" gridSize="10" guides="1" tooltips="1" connect="1" arrows="1" fold="1" pageScale="1" pageWidth="850" pageHeight="1100" math="0" shadow="0">
      <root>
        <mxCell id="0" />
        <mxCell id="1" parent="0" />
        <mxCell id="RWpxtAMR5IwxsH0a9k-P-1" value="&lt;font style=&quot;font-size: 9px;&quot;&gt;cd: StartCreatingPeriodicReport&lt;/font&gt;" style="shape=umlFrame;whiteSpace=wrap;html=1;pointerEvents=0;width=151;height=15;" vertex="1" parent="1">
          <mxGeometry x="9" y="10" width="781" height="270" as="geometry" />
        </mxCell>
        <mxCell id="RWpxtAMR5IwxsH0a9k-P-2" style="edgeStyle=none;rounded=0;orthogonalLoop=1;jettySize=auto;html=1;exitX=0.003;exitY=0.258;exitDx=0;exitDy=0;endArrow=none;endFill=0;entryX=0;entryY=0;entryDx=0;entryDy=0;exitPerimeter=0;" edge="1" parent="1" source="RWpxtAMR5IwxsH0a9k-P-1" target="RWpxtAMR5IwxsH0a9k-P-3">
          <mxGeometry relative="1" as="geometry">
            <mxPoint x="190" y="101" as="sourcePoint" />
          </mxGeometry>
        </mxCell>
        <mxCell id="RWpxtAMR5IwxsH0a9k-P-3" value="&lt;u&gt;orderContorller: OrderController&lt;/u&gt;" style="html=1;whiteSpace=wrap;" vertex="1" parent="1">
          <mxGeometry x="120" y="80" width="560" height="40" as="geometry" />
        </mxCell>
        <mxCell id="RWpxtAMR5IwxsH0a9k-P-4" value="&amp;nbsp;StartCreatingPeriodicReport(chosenSupplier, itemsToOrder)" style="html=1;verticalAlign=bottom;endArrow=block;edgeStyle=orthogonalEdgeStyle;elbow=vertical;strokeColor=default;curved=1;shadow=0;" edge="1" parent="1">
          <mxGeometry x="1" y="53" width="80" relative="1" as="geometry">
            <mxPoint x="38" y="70" as="sourcePoint" />
            <mxPoint x="108" y="70" as="targetPoint" />
            <mxPoint x="52" y="43" as="offset" />
          </mxGeometry>
        </mxCell>
        <mxCell id="RWpxtAMR5IwxsH0a9k-P-5" value="&lt;u&gt;orderManag: OrderManagment&lt;/u&gt;" style="html=1;whiteSpace=wrap;" vertex="1" parent="1">
          <mxGeometry x="355" y="220" width="105" height="40" as="geometry" />
        </mxCell>
        <mxCell id="RWpxtAMR5IwxsH0a9k-P-6" value="&lt;font style=&quot;font-size: 9px;&quot;&gt;1.newReport:= createPeriodicReport(chosenSupplier,itemsToOrder)&amp;nbsp;&lt;br&gt;&lt;/font&gt;" style="html=1;verticalAlign=bottom;endArrow=block;edgeStyle=elbowEdgeStyle;elbow=vertical;curved=0;rounded=0;" edge="1" parent="1">
          <mxGeometry x="0.65" y="140" width="80" relative="1" as="geometry">
            <mxPoint x="410" y="174" as="sourcePoint" />
            <mxPoint x="410" y="194" as="targetPoint" />
            <mxPoint as="offset" />
            <Array as="points">
              <mxPoint x="410" y="144" />
            </Array>
          </mxGeometry>
        </mxCell>
        <mxCell id="RWpxtAMR5IwxsH0a9k-P-7" value="" style="endArrow=open;endFill=1;endSize=12;html=1;rounded=0;entryX=0.25;entryY=0;entryDx=0;entryDy=0;exitX=0.459;exitY=1;exitDx=0;exitDy=0;exitPerimeter=0;" edge="1" parent="1">
          <mxGeometry width="160" relative="1" as="geometry">
            <mxPoint x="399.03999999999996" y="120" as="sourcePoint" />
            <mxPoint x="399.5" y="220" as="targetPoint" />
          </mxGeometry>
        </mxCell>
        <mxCell id="RWpxtAMR5IwxsH0a9k-P-8" value="&lt;u&gt;periodicMapper:&lt;br&gt;PeriodicReportDataMapper&lt;br&gt;&lt;/u&gt;" style="html=1;whiteSpace=wrap;" vertex="1" parent="1">
          <mxGeometry x="160" y="220" width="160" height="40" as="geometry" />
        </mxCell>
        <mxCell id="RWpxtAMR5IwxsH0a9k-P-9" value="" style="endArrow=open;endFill=1;endSize=12;html=1;rounded=0;entryX=0.25;entryY=0;entryDx=0;entryDy=0;exitX=0.459;exitY=1;exitDx=0;exitDy=0;exitPerimeter=0;" edge="1" parent="1">
          <mxGeometry width="160" relative="1" as="geometry">
            <mxPoint x="239.57999999999996" y="120" as="sourcePoint" />
            <mxPoint x="240.04" y="220" as="targetPoint" />
          </mxGeometry>
        </mxCell>
        <mxCell id="RWpxtAMR5IwxsH0a9k-P-10" value="&lt;font style=&quot;font-size: 9px;&quot;&gt;2. InsertPeriodicReport(newReport)&lt;br&gt;&lt;/font&gt;" style="html=1;verticalAlign=bottom;endArrow=block;edgeStyle=elbowEdgeStyle;elbow=vertical;curved=0;rounded=0;" edge="1" parent="1">
          <mxGeometry x="0.65" y="-80" width="80" relative="1" as="geometry">
            <mxPoint x="220" y="180" as="sourcePoint" />
            <mxPoint x="220" y="200" as="targetPoint" />
            <mxPoint as="offset" />
            <Array as="points">
              <mxPoint x="220" y="150" />
            </Array>
          </mxGeometry>
        </mxCell>
      </root>
    </mxGraphModel>
  </diagram>
</mxfile>
